<svg width="18" height="21" viewBox="0 0 18 21" fill="none" xmlns="http://www.w3.org/2000/svg">
    <path stroke="#FF4646" d="M12.042 20.1723L10.684 15.1003M10.684 15.1003L8.174 17.3253L8.743 7.85526L13.97 15.7723L10.684 15.1003ZM3.166 14.8333C2.20672 13.8739 1.49886 12.6927 1.1051 11.3944C0.711346 10.0961 0.643856 8.72069 0.908611 7.39006C1.17337 6.05943 1.76219 4.81464 2.62293 3.76593C3.48367 2.71722 4.58976 1.89698 5.84322 1.37785C7.09668 0.858715 8.45883 0.656724 9.809 0.789763C11.1592 0.922803 12.4557 1.38677 13.5837 2.14056C14.7118 2.89435 15.6365 3.91471 16.276 5.11124C16.9155 6.30777 17.25 7.64355 17.25 9.00026M5.288 12.7123C4.67742 12.1018 4.22684 11.3502 3.97615 10.5239C3.72547 9.69771 3.68243 8.82242 3.85084 7.97559C4.01926 7.12876 4.39393 6.33654 4.94167 5.66911C5.48941 5.00168 6.1933 4.47964 6.991 4.14924C7.78869 3.81884 8.65556 3.69028 9.51481 3.77495C10.3741 3.85961 11.1992 4.15489 11.917 4.63463C12.6349 5.11436 13.2234 5.76374 13.6303 6.52524C14.0373 7.28674 14.2501 8.13685 14.25 9.00026"/>
</svg>
